<?xml version="1.0" standalone="no"?>
<svg xmlns:xlink="http://www.w3.org/1999/xlink" id="wave" style="transform:rotate(180deg); transition: 0.3s" viewBox="0 0 1440 100" version="1.1" xmlns="http://www.w3.org/2000/svg"><defs><linearGradient id="sw-gradient-0" x1="0" x2="0" y1="1" y2="0"><stop stop-color="rgba(234, 239, 233, 1)" offset="0%"/><stop stop-color="rgba(234, 239, 233, 1)" offset="100%"/></linearGradient></defs><path style="transform:translate(0, 0px); opacity:1" fill="url(#sw-gradient-0)" d="M0,70L80,60C160,50,320,30,480,26.7C640,23,800,37,960,41.7C1120,47,1280,43,1440,35C1600,27,1760,13,1920,13.3C2080,13,2240,27,2400,26.7C2560,27,2720,13,2880,16.7C3040,20,3200,40,3360,55C3520,70,3680,80,3840,75C4000,70,4160,50,4320,35C4480,20,4640,10,4800,18.3C4960,27,5120,53,5280,56.7C5440,60,5600,40,5760,36.7C5920,33,6080,47,6240,45C6400,43,6560,27,6720,18.3C6880,10,7040,10,7200,11.7C7360,13,7520,17,7680,18.3C7840,20,8000,20,8160,25C8320,30,8480,40,8640,41.7C8800,43,8960,37,9120,31.7C9280,27,9440,23,9600,33.3C9760,43,9920,67,10080,70C10240,73,10400,57,10560,53.3C10720,50,10880,60,11040,60C11200,60,11360,50,11440,45L11520,40L11520,100L11440,100C11360,100,11200,100,11040,100C10880,100,10720,100,10560,100C10400,100,10240,100,10080,100C9920,100,9760,100,9600,100C9440,100,9280,100,9120,100C8960,100,8800,100,8640,100C8480,100,8320,100,8160,100C8000,100,7840,100,7680,100C7520,100,7360,100,7200,100C7040,100,6880,100,6720,100C6560,100,6400,100,6240,100C6080,100,5920,100,5760,100C5600,100,5440,100,5280,100C5120,100,4960,100,4800,100C4640,100,4480,100,4320,100C4160,100,4000,100,3840,100C3680,100,3520,100,3360,100C3200,100,3040,100,2880,100C2720,100,2560,100,2400,100C2240,100,2080,100,1920,100C1760,100,1600,100,1440,100C1280,100,1120,100,960,100C800,100,640,100,480,100C320,100,160,100,80,100L0,100Z"/></svg>